<?xml version="1.0" encoding="UTF-8"?><svg id="uuid-c88bac08-819f-4a51-b132-cc2c45fb077c" xmlns="http://www.w3.org/2000/svg" viewBox="0 0 1271.89 270.49"><g id="uuid-6b4bb608-ec53-4e6d-bd66-14f7fd17b2ab"><path d="M121.89,148.32c-1.68,21.07-.45,40.77-.89,61.21-.16,14.45-11.53,26.36-26.34,26.36H26.68C11.54,235.92,0,224.03,0,208.85L.04,26.02C.04,11.69,11.42.05,25.66.05h69.98c13.96.02,24.48,11.22,25.32,24.61l.89,63.18C136.68,35.85,181.81.17,236.07,0v235.84c-53.28-.06-98.94-35-114.18-87.52Z"/><polygon points="484.1 210 433.37 210.27 356.33 40.03 355.99 210.12 328.52 210.07 328.52 28.18 376.07 28.21 456.34 198.47 456.61 28.31 484.09 28.3 484.1 210"/><path d="M602.21,266.92h-52.31s-.12-25.18-.12-25.18l62.12-.14-.23-58.34c-9.98,20.76-28.7,32.44-51.24,29.82-22.52-.54-40.82-14.79-47.3-36.59-6.15-20.68-6-43.02.62-63.37,7.11-21.86,25.63-34.14,47.81-35.27,22.61-1.16,41.07,9.27,49.75,31.7l.33-31.66,27.79.14-.02,150.79c0,7.31-1.2,13.99-3.47,20.48-5.03,14.36-19.05,17.62-33.73,17.63ZM608.01,165.95c4.37-13.03,4.11-27.09.08-39.97-5.22-16.64-19.86-24.69-36.65-23.83-14.98.76-27.91,8.12-32.98,23.05-7.78,22.86-3.58,60.24,25.58,64.35,19.25,2.72,37.36-3.87,43.98-23.6Z"/><path d="M999.69,190.34c18.78,1.33,34.89-4.81,40-25.05l26.17.09c-3.12,21.12-16.45,37.03-35.57,43.99-10.05,3.66-20,4.32-30.72,3.89-22.13-.89-41.44-12.85-50.9-33.21-15.67-33.72-8.54-80.32,27.43-96.68,16.69-7.59,35.68-7.84,52.87-1.36,26.63,10.04,38.42,37.11,37.36,65.15l-99.69.05c-.81,21.3,9.94,41.5,33.06,43.15ZM1039.01,133.9c-.81-9.17-3.45-15.99-8-22.32-6.38-8.21-15.93-11.65-26.34-11.87-21.55-.47-34.39,13.15-37.23,34.23l71.56-.04Z"/><path d="M852.25,257.04c-11.52,17.67-33.61,12.49-52.95,13.38l-.13-20.95,19.58-.06c7.7-.02,14.25-3.86,17.58-11.07l15.47-33.45-51.64-126.86,27.73-.14,37.26,98.83,39.7-98.75,28.22.02-69.6,158.62c-3.22,7.34-6.77,13.6-11.22,20.42Z"/><path d="M758.41,77.99l27.78-.07v132.17s-22.81.09-22.81.09l-4.97-27.91c-8.29,21.57-27.05,32.58-49.36,31.18-18.52-1.16-33.83-10.99-39.55-29.4-3.43-11.03-5.19-22.82-5.21-34.76l-.11-71.28,26.57-.11.09,69.92c0,7.31,1.12,14.97,2.86,21.69,3.49,13.5,14.82,19.54,27.96,20,14.07.5,26.68-5.22,31.96-19.11,2.73-7.17,4.68-15.67,4.69-23.7l.09-68.72Z"/><path d="M1188.25,210.13l-.08-68.2c0-7.95-1.42-16.05-4.06-23.21-6.54-17.71-27.85-19.46-42.02-14.52-16.86,5.87-22.36,26.26-22.38,42.7l-.07,63.28-27.45-.14V78.06s22.86-.11,22.86-.11l4.84,30.61c7.5-18.54,23.02-29.77,42.8-30.49,9.98-.37,19.81.44,28.67,5.41,19.18,10.76,22.99,34.82,23.02,55.48l.12,71.17-26.25.02Z"/><path d="M1267.13,206c-5.48,5.93-17.52,5.81-23.2.58-7.05-6.5-7.25-20-.33-26.74,5.62-5.47,17.6-5.64,23.23-.14,6.57,6.42,6.82,19.25.3,26.31Z"/></g></svg>